<svg width="18" height="20" viewBox="0 0 18 20" fill="none" xmlns="http://www.w3.org/2000/svg">
<path d="M15.75 19H2.24927C2.05036 19 1.85959 18.921 1.71894 18.7803C1.57828 18.6397 1.49927 18.4489 1.49927 18.25V1.75C1.49927 1.55109 1.57828 1.36032 1.71894 1.21967C1.85959 1.07902 2.05036 1 2.24927 1H11.25L16.5 6.25V18.25C16.5 18.3485 16.4806 18.446 16.4429 18.537C16.4052 18.628 16.35 18.7107 16.2803 18.7803C16.2107 18.85 16.128 18.9052 16.037 18.9429C15.946 18.9806 15.8485 19 15.75 19Z" stroke="#622EE5" stroke-width="1.5" stroke-linecap="round" stroke-linejoin="round"/>
<path d="M11.25 1V6.25H16.5007" stroke="#622EE5" stroke-width="1.5" stroke-linecap="round" stroke-linejoin="round"/>
<path d="M6.375 12.625L9 15.25L11.625 12.625" stroke="#622EE5" stroke-width="1.5" stroke-linecap="round" stroke-linejoin="round"/>
<path d="M9 9.25V15.25" stroke="#622EE5" stroke-width="1.5" stroke-linecap="round" stroke-linejoin="round"/>
</svg>
