<svg width="18" height="21" viewBox="0 0 18 21" fill="none" xmlns="http://www.w3.org/2000/svg">
<path d="M2.26907 7.75003C2.26783 6.86054 2.44265 5.9796 2.78346 5.15799C3.12427 4.33638 3.62433 3.59034 4.2548 2.96289C4.88528 2.33544 5.63371 1.83898 6.45696 1.50213C7.2802 1.16528 8.16197 0.994699 9.05145 1.00022C12.763 1.02781 15.7317 4.11285 15.7317 7.83477V8.50003C15.7317 11.8577 16.4342 13.8062 17.053 14.8711C17.1196 14.9849 17.1551 15.1143 17.1558 15.2461C17.1565 15.378 17.1224 15.5077 17.057 15.6222C16.9915 15.7367 16.8971 15.8319 16.7831 15.8983C16.6691 15.9646 16.5397 15.9997 16.4078 16H1.59225C1.46037 15.9997 1.3309 15.9646 1.21692 15.8982C1.10294 15.8319 1.00847 15.7366 0.943042 15.6221C0.877618 15.5076 0.843552 15.3779 0.84428 15.246C0.845009 15.1141 0.880506 14.9847 0.947192 14.8709C1.56625 13.806 2.26907 11.8576 2.26907 8.50003L2.26907 7.75003Z" stroke="#172765" stroke-width="1.5" stroke-linecap="round" stroke-linejoin="round"/>
<path d="M6 16V16.75C6 17.5456 6.31607 18.3087 6.87868 18.8713C7.44129 19.4339 8.20435 19.75 9 19.75C9.79565 19.75 10.5587 19.4339 11.1213 18.8713C11.6839 18.3087 12 17.5456 12 16.75V16" stroke="#172765" stroke-width="1.5" stroke-linecap="round" stroke-linejoin="round"/>
</svg>
