<svg width="20" height="20" viewBox="0 0 20 20" fill="none" xmlns="http://www.w3.org/2000/svg">
<path d="M10 10V1" stroke="white" stroke-width="1.5" stroke-linecap="round" stroke-linejoin="round"/>
<path d="M17.7941 5.5L2.20569 14.5" stroke="white" stroke-width="1.5" stroke-linecap="round" stroke-linejoin="round"/>
<path d="M1.15008 11.6454C0.760411 9.53664 1.13532 7.35799 2.20749 5.50075C3.27966 3.64352 4.97883 2.22936 6.99988 1.51224V8.26806L1.15008 11.6454Z" stroke="white" stroke-width="1.5" stroke-linecap="round" stroke-linejoin="round"/>
<path d="M10.0001 1C11.5769 1.00029 13.126 1.41485 14.4922 2.20216C15.8583 2.98947 16.9937 4.1219 17.7846 5.48605C18.5754 6.8502 18.994 8.39819 18.9984 9.975C19.0028 11.5518 18.5928 13.1021 17.8095 14.4706C17.0263 15.8391 15.8972 16.9779 14.5354 17.7728C13.1736 18.5676 11.6269 18.9908 10.0501 18.9999C8.47329 19.0089 6.92179 18.6035 5.55095 17.8243C4.18012 17.0451 3.03806 15.9194 2.23914 14.56" stroke="white" stroke-width="1.5" stroke-linecap="round" stroke-linejoin="round"/>
</svg>
