<svg width="20" height="19" viewBox="0 0 20 19" fill="none" xmlns="http://www.w3.org/2000/svg">
<path d="M5.31112 14.876L2.23267 17.4639C2.12334 17.5558 1.99005 17.6146 1.84846 17.6333C1.70687 17.652 1.56287 17.63 1.4334 17.5697C1.30393 17.5094 1.19437 17.4133 1.11761 17.2929C1.04084 17.1725 1.00006 17.0326 1.00006 16.8898V2.00006C1.00006 1.80115 1.07908 1.61038 1.21973 1.46973C1.36038 1.32908 1.55115 1.25006 1.75006 1.25006H18.2501C18.449 1.25006 18.6397 1.32908 18.7804 1.46973C18.921 1.61038 19.0001 1.80115 19.0001 2.00006V14.0001C19.0001 14.199 18.921 14.3897 18.7804 14.5304C18.6397 14.671 18.449 14.7501 18.2501 14.7501H5.65671L5.31112 14.876Z" stroke="#172765" stroke-width="1.5" stroke-linecap="round" stroke-linejoin="round"/>
<path d="M7.00006 6.5H13.0001" stroke="#172765" stroke-width="1.5" stroke-linecap="round" stroke-linejoin="round"/>
<path d="M7.00006 9.5H13.0001" stroke="#172765" stroke-width="1.5" stroke-linecap="round" stroke-linejoin="round"/>
</svg>
