<svg width="22" height="22" viewBox="0 0 22 22" fill="none" xmlns="http://www.w3.org/2000/svg">
<path d="M10.4998 1.42622L2.93846 2.93849L1.42619 10.4998C1.40197 10.6209 1.40802 10.7461 1.4438 10.8643C1.47958 10.9824 1.54398 11.09 1.63129 11.1773L11.4237 20.9697C11.4934 21.0394 11.5761 21.0946 11.6671 21.1323C11.7581 21.17 11.8556 21.1894 11.9541 21.1894C12.0526 21.1894 12.1501 21.17 12.2411 21.1323C12.3321 21.0946 12.4148 21.0394 12.4844 20.9697L20.9697 12.4844C21.0393 12.4148 21.0946 12.3321 21.1323 12.2411C21.17 12.1501 21.1894 12.0526 21.1894 11.9541C21.1894 11.8556 21.17 11.7581 21.1323 11.6671C21.0946 11.5761 21.0393 11.4934 20.9697 11.4238L11.1772 1.63132C11.0899 1.54401 10.9824 1.47961 10.8642 1.44383C10.7461 1.40805 10.6209 1.402 10.4998 1.42622V1.42622Z" stroke="#172765" stroke-width="1.5" stroke-linecap="round" stroke-linejoin="round"/>
<path d="M6.875 7.8125C7.39277 7.8125 7.8125 7.39277 7.8125 6.875C7.8125 6.35723 7.39277 5.9375 6.875 5.9375C6.35723 5.9375 5.9375 6.35723 5.9375 6.875C5.9375 7.39277 6.35723 7.8125 6.875 7.8125Z" fill="#172765"/>
</svg>
