<svg width="24" height="17" viewBox="0 0 24 17" fill="none" xmlns="http://www.w3.org/2000/svg">
<path d="M22.5673 7.41736L20.25 8.576L17.25 2.83081L19.5909 1.66037C19.7667 1.57244 19.9701 1.55709 20.1572 1.61762C20.3443 1.67816 20.5001 1.80974 20.5911 1.98404L22.8967 6.39938C22.9428 6.48767 22.9708 6.58426 22.9792 6.68351C22.9876 6.78276 22.9761 6.88268 22.9454 6.97744C22.9148 7.07221 22.8655 7.15991 22.8006 7.23544C22.7357 7.31097 22.6564 7.37281 22.5673 7.41736V7.41736Z" stroke="#172765" stroke-width="1.5" stroke-linecap="round" stroke-linejoin="round"/>
<path d="M3.75006 8.47547L1.43278 7.31683C1.34369 7.27229 1.26437 7.21044 1.19944 7.13491C1.13452 7.05938 1.08528 6.97168 1.05462 6.87691C1.02395 6.78215 1.01247 6.68223 1.02084 6.58298C1.02921 6.48373 1.05727 6.38714 1.10337 6.29886L3.40896 1.88351C3.49997 1.70921 3.65579 1.57763 3.84287 1.51709C4.02995 1.45655 4.23332 1.4719 4.40919 1.55984L6.75006 2.73027L3.75006 8.47547Z" stroke="#172765" stroke-width="1.5" stroke-linecap="round" stroke-linejoin="round"/>
<path d="M20.25 8.57601L18.75 10.3308L15.3003 13.7805C15.2087 13.8721 15.095 13.9384 14.9701 13.973C14.8453 14.0076 14.7137 14.0092 14.588 13.9778L9.15458 12.6195C9.05266 12.594 8.95724 12.5474 8.87448 12.4827L3.75 8.47552" stroke="#172765" stroke-width="1.5" stroke-linecap="round" stroke-linejoin="round"/>
<path d="M18.75 10.3308L14.625 7.33084L13.425 8.23084C12.9058 8.62031 12.2742 8.83084 11.625 8.83084C10.9759 8.83084 10.3443 8.62031 9.82504 8.23084L9.31685 7.8497C9.23088 7.78522 9.15978 7.70303 9.10834 7.60869C9.05691 7.51434 9.02635 7.41005 9.01873 7.30286C9.01112 7.19568 9.02662 7.08811 9.06419 6.98744C9.10177 6.88677 9.16053 6.79535 9.23652 6.71937L12.9054 3.05051C12.975 2.98087 13.0577 2.92562 13.1487 2.88793C13.2397 2.85024 13.3372 2.83084 13.4357 2.83084H17.25" stroke="#172765" stroke-width="1.5" stroke-linecap="round" stroke-linejoin="round"/>
<path d="M6.80383 2.73031L11.6151 1.32767C11.787 1.27756 11.9711 1.29059 12.1342 1.36439L15.375 2.83079" stroke="#172765" stroke-width="1.5" stroke-linecap="round" stroke-linejoin="round"/>
<path d="M10.5 15.9558L7.67443 15.2494C7.55977 15.2207 7.4535 15.1654 7.3643 15.0878L5.25 13.25" stroke="#172765" stroke-width="1.5" stroke-linecap="round" stroke-linejoin="round"/>
</svg>
