<svg width="20" height="20" viewBox="0 0 20 20" fill="none" xmlns="http://www.w3.org/2000/svg">
<path d="M10 19C14.9706 19 19 14.9706 19 10C19 5.02944 14.9706 1 10 1C5.02944 1 1 5.02944 1 10C1 14.9706 5.02944 19 10 19Z" stroke="#172765" stroke-width="1.5" stroke-linecap="round" stroke-linejoin="round"/>
<path d="M10 12.25V11.5C10.5933 11.5 11.1734 11.3241 11.6667 10.9944C12.1601 10.6648 12.5446 10.1962 12.7716 9.64805C12.9987 9.09987 13.0581 8.49667 12.9424 7.91473C12.8266 7.33279 12.5409 6.79824 12.1213 6.37868C11.7018 5.95912 11.1672 5.6734 10.5853 5.55765C10.0033 5.44189 9.40013 5.5013 8.85195 5.72836C8.30377 5.95543 7.83524 6.33994 7.50559 6.83329C7.17595 7.32664 7 7.90666 7 8.5" stroke="#172765" stroke-width="1.5" stroke-linecap="round" stroke-linejoin="round"/>
<path d="M10 16.375C10.6213 16.375 11.125 15.8713 11.125 15.25C11.125 14.6287 10.6213 14.125 10 14.125C9.37868 14.125 8.875 14.6287 8.875 15.25C8.875 15.8713 9.37868 16.375 10 16.375Z" fill="#172765"/>
</svg>
