<svg width="14" height="12" viewBox="0 0 14 12" fill="none" xmlns="http://www.w3.org/2000/svg">
<path d="M0.666626 5.75626L0.202387 5.57057C0.154706 5.68977 0.154706 5.82275 0.202387 5.94196L0.666626 5.75626ZM13.3333 5.75626L13.7975 5.94196C13.8452 5.82275 13.8452 5.68977 13.7975 5.57057L13.3333 5.75626ZM6.99995 9.78007C4.92403 9.78007 3.46584 8.74739 2.5085 7.68368C2.02949 7.15144 1.68224 6.61751 1.45506 6.2166C1.34175 6.01665 1.25909 5.85116 1.20548 5.73744C1.17869 5.68061 1.15921 5.63683 1.14683 5.60826C1.14064 5.59399 1.13624 5.58352 1.13358 5.57714C1.13226 5.57396 1.13137 5.57179 1.13092 5.57068C1.13069 5.57013 1.13057 5.56984 1.13056 5.56982C1.13056 5.56981 1.13058 5.56987 1.13063 5.56999C1.13066 5.57005 1.13072 5.5702 1.13073 5.57023C1.13079 5.57039 1.13086 5.57057 0.666626 5.75626C0.202387 5.94196 0.202472 5.94217 0.202565 5.9424C0.202605 5.9425 0.202704 5.94275 0.202784 5.94295C0.202945 5.94335 0.203134 5.94381 0.203351 5.94435C0.203785 5.94543 0.204333 5.94678 0.204994 5.9484C0.206316 5.95164 0.208093 5.95596 0.210328 5.96133C0.214798 5.97208 0.221104 5.98701 0.229274 6.00587C0.245611 6.04357 0.269425 6.09698 0.300951 6.16385C0.363965 6.29752 0.458017 6.48546 0.585035 6.70961C0.838508 7.15692 1.22637 7.75394 1.76521 8.35265C2.84359 9.55085 4.55205 10.7801 6.99995 10.7801V9.78007ZM0.666626 5.75626C1.13086 5.94196 1.13079 5.94213 1.13073 5.9423C1.13072 5.94233 1.13066 5.94247 1.13063 5.94253C1.13058 5.94266 1.13056 5.94271 1.13056 5.9427C1.13057 5.94268 1.13069 5.94239 1.13092 5.94184C1.13137 5.94073 1.13226 5.93857 1.13358 5.93538C1.13624 5.929 1.14064 5.91854 1.14683 5.90426C1.15921 5.87569 1.17869 5.83191 1.20548 5.77509C1.25909 5.66136 1.34175 5.49588 1.45506 5.29592C1.68224 4.89502 2.02949 4.36108 2.5085 3.82884C3.46584 2.76513 4.92403 1.73245 6.99995 1.73245V0.732452C4.55205 0.732452 2.84359 1.96167 1.76521 3.15988C1.22637 3.75859 0.838508 4.3556 0.585035 4.80291C0.458017 5.02706 0.363965 5.215 0.300951 5.34867C0.269425 5.41554 0.245611 5.46895 0.229274 5.50665C0.221104 5.52551 0.214798 5.54045 0.210328 5.55119C0.208093 5.55656 0.206316 5.56088 0.204994 5.56413C0.204333 5.56575 0.203785 5.5671 0.203351 5.56817C0.203134 5.56871 0.202945 5.56918 0.202784 5.56958C0.202704 5.56978 0.202605 5.57002 0.202565 5.57012C0.202472 5.57035 0.202387 5.57057 0.666626 5.75626ZM6.99995 1.73245C9.07586 1.73245 10.5341 2.76514 11.4914 3.82884C11.9704 4.36108 12.3177 4.89502 12.5449 5.29592C12.6582 5.49588 12.7408 5.66136 12.7944 5.77509C12.8212 5.83191 12.8407 5.8757 12.8531 5.90426C12.8593 5.91854 12.8637 5.92901 12.8663 5.93538C12.8677 5.93857 12.8686 5.94073 12.869 5.94184C12.8692 5.9424 12.8693 5.94269 12.8694 5.94271C12.8694 5.94272 12.8693 5.94266 12.8693 5.94254C12.8693 5.94247 12.8692 5.94233 12.8692 5.9423C12.8691 5.94214 12.8691 5.94196 13.3333 5.75626C13.7975 5.57057 13.7974 5.57035 13.7974 5.57012C13.7973 5.57002 13.7972 5.56977 13.7971 5.56957C13.797 5.56918 13.7968 5.56871 13.7966 5.56817C13.7961 5.56709 13.7956 5.56574 13.7949 5.56412C13.7936 5.56088 13.7918 5.55656 13.7896 5.55119C13.7851 5.54045 13.7788 5.52551 13.7706 5.50665C13.7543 5.46895 13.7305 5.41554 13.699 5.34867C13.636 5.215 13.5419 5.02706 13.4149 4.80291C13.1614 4.3556 12.7735 3.75859 12.2347 3.15987C11.1563 1.96167 9.44784 0.732452 6.99995 0.732452V1.73245ZM13.3333 5.75626C12.8691 5.57057 12.8691 5.57039 12.8692 5.57023C12.8692 5.57019 12.8693 5.57005 12.8693 5.56999C12.8693 5.56986 12.8694 5.56981 12.8694 5.56982C12.8693 5.56984 12.8692 5.57013 12.869 5.57068C12.8686 5.57179 12.8677 5.57395 12.8663 5.57714C12.8637 5.58352 12.8593 5.59398 12.8531 5.60826C12.8407 5.63683 12.8212 5.68061 12.7944 5.73743C12.7408 5.85116 12.6582 6.01664 12.5449 6.2166C12.3177 6.61751 11.9704 7.15144 11.4914 7.68368C10.5341 8.74739 9.07586 9.78007 6.99995 9.78007V10.7801C9.44784 10.7801 11.1563 9.55085 12.2347 8.35265C12.7735 7.75394 13.1614 7.15692 13.4149 6.70961C13.5419 6.48546 13.636 6.29752 13.699 6.16386C13.7305 6.09698 13.7543 6.04357 13.7706 6.00587C13.7788 5.98702 13.7851 5.97208 13.7896 5.96134C13.7918 5.95597 13.7936 5.95164 13.7949 5.9484C13.7956 5.94678 13.7961 5.94543 13.7966 5.94436C13.7968 5.94382 13.797 5.94335 13.7971 5.94295C13.7972 5.94275 13.7973 5.9425 13.7974 5.9424C13.7974 5.94217 13.7975 5.94196 13.3333 5.75626ZM6.99996 7.06579C6.27673 7.06579 5.69044 6.47949 5.69044 5.75626H4.69044C4.69044 7.03178 5.72444 8.06579 6.99996 8.06579V7.06579ZM8.30948 5.75626C8.30948 6.47949 7.72319 7.06579 6.99996 7.06579V8.06579C8.27547 8.06579 9.30948 7.03178 9.30948 5.75626H8.30948ZM6.99996 4.44674C7.72319 4.44674 8.30948 5.03303 8.30948 5.75626H9.30948C9.30948 4.48075 8.27547 3.44674 6.99996 3.44674V4.44674ZM6.99996 3.44674C5.72444 3.44674 4.69044 4.48075 4.69044 5.75626H5.69044C5.69044 5.03303 6.27673 4.44674 6.99996 4.44674V3.44674Z" fill="#172765"/>
<line x1="2.41296" y1="10.5251" x2="11.7059" y2="1.23224" stroke="#172765" stroke-linecap="round" stroke-linejoin="round"/>
</svg>
